PathFileType	4	(X/Y/Z)	./resultDataOpenSim/trcMotMarkerGrf/sub09/qtm-12-06.trc
DataRate	CameraRate	NumFrames	NumMarkers	Units	OrigDataRate	OrigDataStartFrame	OrigNumFrames
250.000000	250.000000	8	24	m	250.000000	421	480
Frame#	Time	L.Toe.Tip			R.Toe.Tip			L.Ankle.Lat			R.Ankle.Lat			L.Ankle.Med			R.Ankle.Med			L.Heel			R.Heel			L.Knee.Lat			R.Knee.Lat			L.Knee.Med			R.Knee.Med			L.Thigh.Upper			R.Thigh.Upper			L.ASIS			R.ASIS			V.Sacral			L.Acromium			R.Acromium			C7			L.Elbow			R.Elbow			L.Wrist.Lat			R.Wrist.Lat
		X1	Y1	Z1	X2	Y2	Z2	X3	Y3	Z3	X4	Y4	Z4	X5	Y5	Z5	X6	Y6	Z6	X7	Y7	Z7	X8	Y8	Z8	X9	Y9	Z9	X10	Y10	Z10	X11	Y11	Z11	X12	Y12	Z12	X13	Y13	Z13	X14	Y14	Z14	X15	Y15	Z15	X16	Y16	Z16	X17	Y17	Z17	X18	Y18	Z18	X19	Y19	Z19	X20	Y20	Z20	X21	Y21	Z21	X22	Y22	Z22	X23	Y23	Z23	X24	Y24	Z24

421	1.68	1.7319594	0.12094421	-0.10422487	1.0398994	0.039378204	0.067689249	1.5798266	0.088378127	-0.12825423	0.90581163	0.0942325	0.1009389	1.6042817	0.11511388	-0.03562905	0.9295889	0.12740168	0.0091478579	1.5368867	0.025327194	-0.078106687	0.83359102	0.095891515	0.048535741	1.4440794	0.48522415	-0.1514229	1.1516541	0.48710833	0.15730219	1.4536862	0.47966401	-0.02530618	1.1384883	0.47825761	0.031303458	1.2582278	0.85747075	-0.17552187	1.2186012	0.88635745	0.19569524	1.3274431	0.95174798	-0.1149795	1.3229375	0.96657844	0.12695212	1.1541123	1.0038123	-0.0076885588	1.2867437	1.404024	-0.1839632	1.2800775	1.4289048	0.1475245	1.2133064	1.4638337	-0.018919692	1.137809	1.0656321	-0.22721885	1.162072	1.0820417	0.24993423	1.2505185	0.83243455	-0.27924287	1.3574336	0.88296281	0.25614019
422	1.684	1.7353085	0.11652626	-0.10433025	1.0401401	0.039425577	0.067874346	1.5829514	0.086078681	-0.12863454	0.90706316	0.09618973	0.10135683	1.6073582	0.11271284	-0.036041566	0.93124459	0.1290811	0.009554481	1.5386532	0.024083365	-0.078642374	0.83487876	0.098820826	0.048871839	1.4513322	0.48473707	-0.15185225	1.1581117	0.48606065	0.15748812	1.4617207	0.48017466	-0.02639029	1.1450061	0.47694015	0.031361876	1.2643396	0.85697785	-0.17651263	1.2246468	0.88524718	0.19483897	1.3340047	0.9511602	-0.11592699	1.3291803	0.96548098	0.12618819	1.1604093	1.0025956	-0.0085934552	1.2920495	1.4031589	-0.18460949	1.2852876	1.4277913	0.14691567	1.2184886	1.4627416	-0.019545688	1.1436303	1.0643488	-0.22825885	1.16737	1.0808343	0.24893837	1.2564965	0.83143272	-0.28021636	1.3624533	0.88156651	0.25588779
423	1.688	1.7384874	0.11176472	-0.10432611	1.0403732	0.039482584	0.068029614	1.5859397	0.083696174	-0.12879268	0.90842122	0.098236554	0.10175274	1.610237	0.11033819	-0.036253742	0.93307463	0.13083763	0.0099181581	1.5400604	0.023076752	-0.078938838	0.83630997	0.10190759	0.049071723	1.4583972	0.48423374	-0.15230469	1.164736	0.48499634	0.1575837	1.4703586	0.48036076	-0.027292038	1.1515093	0.47553758	0.031446517	1.2703867	0.85645932	-0.17744675	1.2306075	0.88416806	0.19399661	1.3406461	0.95059335	-0.11688071	1.3354487	0.96440963	0.12541408	1.1667559	1.0013949	-0.0095031669	1.2973532	1.4023233	-0.18526201	1.290477	1.4266964	0.14629411	1.223666	1.4616451	-0.020170637	1.1494595	1.0630776	-0.22930784	1.1726577	1.079665	0.2479376	1.2625102	0.8304702	-0.28118569	1.3674531	0.88018486	0.25562326
424	1.692	1.7416127	0.10641517	-0.10434089	1.0406329	0.039582951	0.068127617	1.5887803	0.081401807	-0.12869466	0.90990527	0.10036302	0.10215222	1.6131005	0.10812658	-0.036227565	0.93509864	0.13265692	0.010239121	1.5412149	0.022477329	-0.078864659	0.83789906	0.10515207	0.049147437	1.4653767	0.48374655	-0.15292974	1.1713636	0.48388625	0.15769147	1.4810231	0.48040533	-0.027579619	1.1580416	0.4740738	0.031563821	1.276418	0.85589475	-0.17833857	1.2364662	0.88309294	0.19315896	1.3473451	0.95003366	-0.11781579	1.3417762	0.96335558	0.12463068	1.1731524	1.0002173	-0.010411081	1.3026525	1.4015223	-0.18591957	1.2956439	1.4256224	0.14565621	1.2288412	1.4605492	-0.02079929	1.1552802	1.0618345	-0.23037507	1.1779275	1.0785319	0.24692818	1.2685611	0.82954326	-0.28215339	1.3724346	0.87881908	0.2553391
425	1.696	1.7448257	0.1003685	-0.10444176	1.0409412	0.039727663	0.068195016	1.5915119	0.079414929	-0.12837881	0.91145416	0.10259517	0.10251952	1.6161673	0.10621685	-0.036019276	0.93731535	0.13454545	0.01052722	1.5422467	0.02249257	-0.078381243	0.8396566	0.10855329	0.049122351	1.4723193	0.48327629	-0.15380627	1.1778946	0.48272757	0.15792124	1.4945715	0.48047067	-0.026953345	1.1647746	0.47258005	0.031794111	1.2825277	0.85527558	-0.17923577	1.242358	0.88198668	0.19228877	1.3540589	0.94948483	-0.11869241	1.3481653	0.96231481	0.12384208	1.1795967	0.99908516	-0.011289789	1.3079498	1.4007642	-0.18658483	1.3008002	1.4245728	0.14499707	1.2340191	1.4594716	-0.021434509	1.1611338	1.0606649	-0.23141615	1.1831812	1.0774351	0.24591743	1.2746471	0.82865575	-0.28311516	1.3773826	0.87746326	0.25503013
426	1.7	1.7482368	0.093837073	-0.10454035	1.0412885	0.039884377	0.068288818	1.5942037	0.077905714	-0.12799023	0.91298074	0.10496897	0.10279534	1.6195743	0.10465339	-0.035769753	0.93971717	0.13650883	0.010798458	1.5432788	0.02319121	-0.077636838	0.84158852	0.11211093	0.049026463	1.4791899	0.48282511	-0.15488619	1.1843381	0.48154265	0.15827854	1.5095082	0.48054966	-0.025807395	1.1718855	0.47106954	0.032198892	1.2888544	0.85460623	-0.18018926	1.2484595	0.88083528	0.19134703	1.3607425	0.94896258	-0.11947672	1.3546158	0.96128147	0.12305516	1.1860632	0.99804194	-0.012127332	1.3132494	1.4000553	-0.18726744	1.3059602	1.423551	0.14431908	1.2391979	1.4584416	-0.022081753	1.1670624	1.0595987	-0.23237585	1.1884345	1.0763746	0.24491712	1.2807663	0.82780957	-0.28406783	1.3822861	0.87610692	0.25470092
427	1.704	1.7518413	0.087292886	-0.10446152	1.0416548	0.040027656	0.068436002	1.5968831	0.076900531	-0.12773328	0.91448538	0.10748318	0.10297859	1.6232412	0.10335102	-0.035634066	0.9422995	0.13854465	0.011074149	1.5444035	0.024383364	-0.076950339	0.84370158	0.11582866	0.048894194	1.4859816	0.48245617	-0.15603454	1.1908318	0.48037535	0.15869264	1.5228458	0.48053718	-0.025017945	1.1794272	0.46953147	0.032733029	1.2955586	0.85391075	-0.18123087	1.254806	0.87964617	0.19032704	1.3673728	0.94847707	-0.12017151	1.3611246	0.9602511	0.1222748	1.1925146	0.99712824	-0.0129534	1.3185564	1.3993895	-0.18798222	1.3111367	1.4225624	0.14363617	1.2443753	1.4574904	-0.022760774	1.1730514	1.0586119	-0.23325697	1.1937139	1.0753467	0.24392498	1.2869282	0.82699513	-0.28501614	1.3871475	0.87474629	0.25436466
428	1.708	1.7554624	0.081189054	-0.10414132	1.0420451	0.040167124	0.068615464	1.599545	0.076264294	-0.12776595	0.91608758	0.1101223	0.10312997	1.6268958	0.10218329	-0.035709476	0.94506101	0.140648	0.011372865	1.5456493	0.025739887	-0.076647347	0.84600878	0.11971394	0.048761656	1.4927857	0.48229279	-0.15713083	1.1975422	0.47924478	0.1590955	1.5331855	0.48043757	-0.025022865	1.1872988	0.46794255	0.033280926	1.3027329	0.85324056	-0.18241181	1.2612971	0.87842792	0.18925107	1.3739472	0.94803133	-0.12081895	1.3676684	0.95922779	0.12150167	1.1989195	0.9963532	-0.013805625	1.3238775	1.3987522	-0.18873681	1.3163323	1.421611	0.14296653	1.2495687	1.4566465	-0.023483045	1.1790749	1.0576596	-0.23410177	1.1990673	1.074344	0.24290416	1.293146	0.82620409	-0.28596057	1.391973	0.8733863	0.25403538
